<?xml version="1.0" encoding="UTF-8" standalone="no"?><!DOCTYPE svg PUBLIC "-//W3C//DTD SVG 1.1//EN" "http://www.w3.org/Graphics/SVG/1.1/DTD/svg11.dtd"><svg width="100%" height="100%" viewBox="0 0 397 560" version="1.1" xmlns="http://www.w3.org/2000/svg" xmlns:xlink="http://www.w3.org/1999/xlink" xml:space="preserve" xmlns:serif="http://www.serif.com/" style="fill-rule:evenodd;clip-rule:evenodd;stroke-linejoin:round;stroke-miterlimit:2;"><path d="M195.768,489.612c0.309,-0.551 0.62,-1.101 0.928,-1.651c1.498,2.017 4.022,2.951 6.804,0.92c0.4,-0.292 0.77,-0.612 1.159,-0.912c0.003,0.003 0.006,0.006 0.009,0.008c0.013,-0.014 0.025,-0.03 0.038,-0.044c7.841,-6.051 13.536,-13.652 18.225,-21.971c19.766,-24.814 38.068,-51.273 53.582,-78.555c3.091,-5.437 -4.635,-11.99 -8.952,-6.907c-4.116,4.85 -8.299,9.645 -12.504,14.419c5.158,-11.717 10.297,-23.443 15.406,-35.178c3.088,-7.093 -6.362,-13.135 -10.628,-6.212c-15.301,24.834 -29.845,50.109 -44.142,75.529c-0.403,-0.572 -0.839,-1.137 -1.342,-1.679c-0.022,-0.022 -0.045,-0.036 -0.067,-0.058c16.815,-29.608 33.883,-59.08 50.07,-89.045c0.998,-1.848 -1.698,-3.421 -2.813,-1.642c-16.673,26.576 -33.166,53.274 -50.295,79.55c-1.909,-90.309 1.034,-181.469 5.845,-271.641c0.034,-0.651 -0.967,-0.645 -1.009,-0c-3.957,62.904 -6.845,125.787 -9.669,188.695c-0.634,-8.119 -1.295,-16.235 -1.99,-24.347c2.957,-60.251 3.01,-120.674 -0.203,-180.858c-0.353,-6.603 -10.386,-8.657 -12.021,-1.626c-1.698,7.318 -3.149,14.681 -4.497,22.063c-0.333,-1.904 -0.714,-3.8 -1.064,-5.701c-3.08,-24.686 -5.973,-49.377 -7.955,-74.127c-0.191,-2.405 -3.738,-2.471 -3.791,-0c-0.294,13.924 -0.511,27.854 -0.669,41.784c-1.726,0.695 -3.133,2.232 -3.191,4.436c-2.301,84.309 -7.924,168.881 -7.399,253.217c0.034,5.492 8.074,5.378 8.452,0c1.56,-22.12 2.68,-44.283 3.566,-66.47c0.695,29.172 1.559,58.332 2.588,87.474c0.175,4.989 5.867,6.256 8.735,3.744c-0.219,3.126 -0.419,6.253 -0.661,9.377c-0.559,7.257 10.539,7.107 11.237,0c0.633,-6.456 1.228,-12.921 1.798,-19.386c0.992,11.723 2.037,23.441 3.207,35.139c0.281,2.81 2.61,4.231 4.789,4.18c-3.633,5.526 -7.296,11.032 -11.001,16.513c-1.292,-2.688 -2.548,-5.398 -3.88,-8.061c-8.407,-34.65 -31.478,-63.924 -54.639,-91.445c-0.794,-1.201 -1.567,-2.416 -2.37,-3.611c-4.133,-6.173 -12.713,-0.872 -9.792,5.723c0.025,0.058 0.05,0.117 0.075,0.172c-3.555,0.198 -7.248,3.747 -5.781,7.479c18.95,48.203 40.709,95.157 65.376,140.702c2.154,3.974 8.263,3.885 10.436,0.003Zm-13.241,-306.261c-0.472,4.06 -0.922,8.124 -1.317,12.198c-0.228,-8.916 -0.434,-17.829 -0.637,-26.746c0.701,4.842 1.335,9.695 1.954,14.548Zm6.732,82.001c1.256,31.94 1.023,63.958 -0.448,95.929c0.081,-31.782 -0.283,-63.894 0.448,-95.929Zm4.878,-77.41c0.033,1.593 0.072,3.185 0.1,4.778c-0.114,-0.931 -0.22,-1.86 -0.337,-2.791c0.075,-0.661 0.162,-1.323 0.237,-1.987Zm-14.514,-76.588c-0.078,-0.083 -0.15,-0.177 -0.234,-0.252c-0.016,-0.865 -0.033,-1.729 -0.05,-2.596c0.089,0.95 0.198,1.898 0.284,2.848Zm5.339,351.84c0.122,-0.245 0.225,-0.5 0.309,-0.773c1.314,1.496 3.354,2.285 5.308,2.126c-0.717,0.762 -1.434,1.521 -2.151,2.28c-0.384,0.408 -0.673,0.831 -0.917,1.259c-0.856,-1.626 -1.699,-3.261 -2.549,-4.892Zm-1.334,-10.898c-2.793,-10.764 -6.151,-21.29 -10.078,-31.559c2.576,4.766 5.131,9.547 7.632,14.355c1.251,5.578 2.082,11.309 2.446,17.204Zm31.626,2.732c0.553,-0.975 1.115,-1.948 1.668,-2.924c0.881,-0.992 1.765,-1.981 2.648,-2.974c-1.437,1.965 -2.865,3.936 -4.316,5.898Zm-7.354,-16.423c-0.564,3.697 -2.902,8.082 -5.828,12.326c-0.162,-0.361 -0.317,-0.731 -0.481,-1.092c2.095,-3.749 4.199,-7.493 6.309,-11.234Z" style="fill:#231f20;fill-rule:nonzero;"/></svg>