<?xml version="1.0" encoding="UTF-8" standalone="no"?><!DOCTYPE svg PUBLIC "-//W3C//DTD SVG 1.1//EN" "http://www.w3.org/Graphics/SVG/1.1/DTD/svg11.dtd"><svg width="100%" height="100%" viewBox="0 0 298 420" version="1.1" xmlns="http://www.w3.org/2000/svg" xmlns:xlink="http://www.w3.org/1999/xlink" xml:space="preserve" xmlns:serif="http://www.serif.com/" style="fill-rule:evenodd;clip-rule:evenodd;stroke-linejoin:round;stroke-miterlimit:2;"><path d="M150.812,52.319c-0.232,0.413 -0.465,0.825 -0.696,1.238c-1.124,-1.513 -3.017,-2.214 -5.103,-0.69c-0.301,0.219 -0.578,0.459 -0.87,0.684c-0.002,-0.002 -0.004,-0.004 -0.006,-0.006c-0.01,0.01 -0.019,0.023 -0.029,0.033c-5.88,4.538 -10.152,10.239 -13.668,16.478c-14.825,18.61 -28.552,38.455 -40.187,58.916c-2.318,4.078 3.477,8.993 6.714,5.18c3.087,-3.637 6.224,-7.233 9.378,-10.814c-3.869,8.788 -7.723,17.583 -11.554,26.384c-2.316,5.319 4.771,9.851 7.971,4.658c11.475,-18.625 22.383,-37.581 33.106,-56.646c0.302,0.429 0.629,0.853 1.007,1.259c0.016,0.017 0.033,0.027 0.05,0.044c-12.611,22.206 -25.412,44.31 -37.553,66.783c-0.748,1.386 1.274,2.566 2.11,1.232c12.505,-19.932 24.874,-39.956 37.721,-59.663c1.432,67.732 -0.775,136.102 -4.384,203.732c-0.025,0.487 0.726,0.483 0.757,-0c2.968,-47.179 5.134,-94.341 7.252,-141.522c0.475,6.089 0.971,12.176 1.493,18.261c-2.218,45.188 -2.258,90.505 0.152,135.643c0.264,4.952 7.79,6.493 9.015,1.219c1.274,-5.488 2.362,-11.01 3.373,-16.547c0.25,1.428 0.536,2.85 0.798,4.276c2.31,18.514 4.48,37.033 5.966,55.595c0.144,1.803 2.804,1.853 2.843,0c0.221,-10.443 0.384,-20.891 0.503,-31.338c1.294,-0.521 2.349,-1.674 2.393,-3.327c1.726,-63.231 5.943,-126.661 5.549,-189.913c-0.025,-4.119 -6.056,-4.033 -6.339,0c-1.17,16.591 -2.01,33.212 -2.675,49.853c-0.521,-21.879 -1.169,-43.75 -1.94,-65.606c-0.132,-3.741 -4.401,-4.692 -6.552,-2.807c0.165,-2.345 0.315,-4.691 0.496,-7.033c0.419,-5.443 -7.904,-5.331 -8.427,-0c-0.476,4.842 -0.922,9.69 -1.349,14.539c-0.744,-8.793 -1.528,-17.581 -2.406,-26.354c-0.21,-2.108 -1.957,-3.173 -3.591,-3.136c2.724,-4.144 5.472,-8.273 8.25,-12.384c0.97,2.016 1.912,4.048 2.91,6.045c6.306,25.988 23.609,47.944 40.979,68.585c0.597,0.9 1.176,1.811 1.779,2.708c3.099,4.629 9.534,0.654 7.343,-4.292c-0.018,-0.044 -0.037,-0.088 -0.056,-0.13c2.666,-0.148 5.436,-2.81 4.336,-5.609c-14.212,-36.152 -30.532,-71.367 -49.032,-105.526c-1.615,-2.981 -6.197,-2.914 -7.827,-0.002Zm9.93,229.696c0.355,-3.046 0.692,-6.093 0.988,-9.149c0.171,6.687 0.326,13.372 0.478,20.059c-0.526,-3.631 -1.001,-7.271 -1.466,-10.91Zm-5.048,-61.502c-0.943,-23.955 -0.767,-47.968 0.335,-71.946c-0.06,23.836 0.213,47.92 -0.335,71.946Zm-3.659,58.058c-0.025,-1.194 -0.054,-2.389 -0.075,-3.583c0.086,0.698 0.165,1.394 0.253,2.093c-0.057,0.496 -0.121,0.992 -0.178,1.49Zm10.886,57.441c0.058,0.062 0.112,0.133 0.175,0.189c0.012,0.649 0.025,1.297 0.037,1.947c-0.066,-0.713 -0.148,-1.423 -0.212,-2.136Zm-4.005,-263.88c-0.091,0.184 -0.169,0.375 -0.231,0.58c-0.986,-1.122 -2.516,-1.714 -3.981,-1.595c0.537,-0.571 1.075,-1.14 1.613,-1.709c0.288,-0.307 0.504,-0.624 0.688,-0.945c0.642,1.22 1.273,2.446 1.911,3.669Zm1.001,8.173c2.095,8.074 4.613,15.968 7.558,23.67c-1.932,-3.575 -3.848,-7.16 -5.724,-10.766c-0.938,-4.184 -1.561,-8.482 -1.834,-12.904Zm-23.72,-2.049c-0.415,0.732 -0.836,1.462 -1.25,2.193c-0.661,0.744 -1.324,1.487 -1.987,2.231c1.078,-1.474 2.149,-2.952 3.237,-4.424Zm5.516,12.318c0.423,-2.773 2.176,-6.062 4.371,-9.245c0.121,0.271 0.238,0.548 0.361,0.819c-1.572,2.812 -3.15,5.62 -4.732,8.426Z" style="fill:#231f20;fill-rule:nonzero;"/></svg>