<svg xmlns="http://www.w3.org/2000/svg" viewBox="0 0 400 400"><title>fauna_1</title><g id="2b09abbb-62a9-4366-bb8c-a70dbd763f2f" data-name="Livello 2"><g id="5575b733-458c-45cf-955b-2bbcfa0a671c" data-name="buttons" opacity="0.9"><path d="M0,0V400H400V0ZM340.086,355.407a13.8,13.8,0,0,1-14.793,1.219c-6.153-3.273-11.093-12.333-11.093-12.333s-13.964-13.967-16.445-17.249c-2.455-3.3-11.093-14.4-12.333-18.1a46.755,46.755,0,0,0-4.109-8.222l-6.157-6.156s.826-4.949-2.869-7-14.4-6.982-22.212-10.266-16.442-9.038-20.142-13.16a57.789,57.789,0,0,1-6.98-10.68l-2.067-3.709a32.8,32.8,0,0,1-9.439-2.871,84.1,84.1,0,0,1-10.705-6.155s-22.6-1.252-27.949,0c-5.331,1.215-7.4,2.859-13.574,1.215-6.157-1.629-13.966-5.34-17.251-5.754a67.791,67.791,0,0,0-9.049,0c-2.067,0-17.271-.813-22.186-2.053-4.938-1.229-10.29-2.055-11.92-1.229-1.654.816-2.481,2.469-.827,3.282s10.266,7.008,13.966,8.638,19.75,8.636,19.75,8.636l8.2,1.64s6.592,7.811,7,10.693,1.24,6.156,1.24,6.156,3.262,1.653,1.634,3.3-8.225,1.24-13.967-2.883c-5.765-4.1-9.047-7.809-10.7-7.809s-6.571-1.642-12.727-4.926c-6.178-3.287-16.858-10.694-21.793-12.334s-13.967-7.395-17.688-9.453c-3.7-2.053-18.833-9.391-11.919-16.867a13.56,13.56,0,0,1,12.333-4.1s23.84-2.046,26.32-2.046c2.46,0,12.747.4,13.553-2.88.827-3.3-6.57-15.216-5.353-21.383,1.24-6.157,2.067-8.211,1.654-11.911s-2.458-8.233-4.112-11.527c-1.653-3.273,0-8.627-.826-11.909-.827-3.3-2.318-5.075-3.285-8.233-1.631-5.34-.413-14.378-.413-14.378L78.67,122.736,62.134,117.56l.8-7.938s11.118-.985,14.308-2.57c3.17-1.585,13.3-7.938,17.481-11.911,4.134-3.985,14.469-20.67,14.469-20.67V59.393l3.19-3.983s1.22,8.957,2.874,8.957c1.628,0,12.747-4.926,15.2-5.753s3.284-7.4,3.284-7.4l8.222-9.449s.414,4.514-.413,6.153c-.8,1.654-3.282,9.867-.8,11.521,2.455,1.64,6.153,3.7,6.153,3.7v2.458h-14.4s-8.634,2.055-10.68,4.122c-2.044,2.044-5.765,8.211-7.393,12.738s-4.527,9.449-.414,10.68a20.759,20.759,0,0,0,11.507-.4c2.067-.827,6.566-2.869,6.566-2.869l.827,2.042s-2.871,3.7-5.326,6.178c-2.48,2.469-8.225,4.513-8.225,4.513a6.765,6.765,0,0,0,1.218,6.982c2.873,3.712,7.421,16.847,8.635,21.784a69.531,69.531,0,0,0,19.732,35.361c15.2,14.8,32.06,23.84,34.954,24.253,2.873.414,15.62,3.7,17.661,3.3a58.037,58.037,0,0,1,24.254.4c11.506,2.885,22.212,9.465,27.124,13.16,4.941,3.687,11.116,10.267,12.747,12.747,1.654,2.46,2.894,4.513,1.654,6.984s-2.481,5.763-2.481,5.763.414,8.613,2.481,12.737c2.046,4.109,4.113,17.674,4.113,17.674l15.616,9.038a15,15,0,0,1,5.351,9.451,115.805,115.805,0,0,1,.414,15.629s10.266,14.389,14.793,20.544c4.5,6.176,6.98,10.689,10.266,12.747a20.553,20.553,0,0,1,5.349,4.936s4.091-.414,5.765,2.046c1.633,2.467,2.46,9.474,5.744,11.518S342.567,353.353,340.086,355.407Z" fill="#fff"/></g></g></svg>