<?xml version="1.0" encoding="UTF-8" standalone="no"?>
<!DOCTYPE svg PUBLIC "-//W3C//DTD SVG 1.1//EN" "http://www.w3.org/Graphics/SVG/1.1/DTD/svg11.dtd">
<svg width="100%" height="100%" viewBox="0 0 335 400" version="1.1" xmlns="http://www.w3.org/2000/svg" xmlns:xlink="http://www.w3.org/1999/xlink" xml:space="preserve" xmlns:serif="http://www.serif.com/" style="fill-rule:evenodd;clip-rule:evenodd;stroke-linejoin:round;stroke-miterlimit:2;">
    <g>
        <g>
            <g>
                <path d="M194.467,283.101L227.105,278.806C227.105,278.806 232.974,308.295 227.248,330.054C227.249,330.055 194.467,330.914 194.467,283.101Z" style="fill:rgb(34,59,30);fill-rule:nonzero;"/>
                <path d="M194.467,283.101L227.105,278.806C227.105,278.806 232.974,308.295 227.248,330.054C227.249,330.055 194.467,330.914 194.467,283.101Z" style="fill:rgb(167,169,172);fill-rule:nonzero;"/>
            </g>
            <g>
                <path d="M139.998,283.101L107.36,278.806C107.36,278.806 101.491,308.295 107.217,330.054C107.216,330.055 139.998,330.914 139.998,283.101Z" style="fill:rgb(34,59,30);fill-rule:nonzero;"/>
                <path d="M139.998,283.101L107.36,278.806C107.36,278.806 101.491,308.295 107.217,330.054C107.216,330.055 139.998,330.914 139.998,283.101Z" style="fill:rgb(167,169,172);fill-rule:nonzero;"/>
            </g>
            <g>
                <path d="M240.558,390L240.558,325.669L222.437,322.629C193.142,320.391 209.794,244.947 209.794,244.947L124.029,244.947C124.029,244.947 140.681,320.391 111.386,322.629L93.264,325.669L93.264,390L240.558,390Z" style="fill:rgb(246,182,135);fill-rule:nonzero;"/>
                <path d="M166.209,292.942C169.19,293.356 172.053,290.968 174.607,289.807C177.973,288.277 181.319,286.699 184.626,285.044C191.215,281.748 197.668,278.149 203.774,274.018C204.431,273.574 205.078,273.117 205.72,272.655C207.008,257.577 209.795,244.947 209.795,244.947L124.03,244.947C124.03,244.947 126.82,257.59 128.107,272.678C139.074,280.495 151.664,285.994 163.679,292.003C164.486,292.408 165.313,292.818 166.209,292.942Z" style="fill:rgb(246,182,135);fill-opacity:0.6;fill-rule:nonzero;"/>
                <path d="M240.558,390L240.558,325.669L222.437,322.629C221.874,322.586 221.329,322.513 220.799,322.417C217.542,321.826 214.909,320.252 212.799,317.94C208.321,332.024 189.479,342.596 166.911,342.596C144.343,342.596 125.5,332.024 121.023,317.94C119.492,319.617 117.687,320.906 115.567,321.713C115.558,321.716 115.55,321.719 115.541,321.723C115.35,321.795 115.156,321.864 114.959,321.928C114.925,321.939 114.891,321.95 114.856,321.961C114.683,322.016 114.509,322.068 114.333,322.117C114.281,322.131 114.23,322.146 114.178,322.16C114.016,322.203 113.853,322.243 113.688,322.281C113.624,322.296 113.56,322.311 113.495,322.325C113.337,322.359 113.177,322.389 113.016,322.418C112.945,322.431 112.875,322.445 112.804,322.457C112.638,322.485 112.469,322.508 112.3,322.531C112.233,322.54 112.168,322.551 112.101,322.559C111.865,322.587 111.627,322.612 111.385,322.63L93.263,325.67L93.263,390L240.558,390Z" style="fill:rgb(211,182,150);fill-rule:nonzero;"/>
                <path d="M212.801,317.936C208.326,332.022 189.482,342.597 166.911,342.597C144.339,342.597 125.494,332.021 121.02,317.933C118.567,320.622 115.413,322.322 111.385,322.63L110.511,322.777C115.549,339.909 138.297,352.839 165.603,352.839C193.099,352.839 215.974,339.728 220.798,322.418C217.542,321.826 214.911,320.248 212.801,317.936Z" style="fill:rgb(211,182,150);fill-rule:nonzero;"/>
            </g>
            <g>
                <g>
                    <path d="M125.401,390L123.582,354.444L106.422,327.7C106.422,327.7 60.735,331.712 25.077,351.546C25.077,351.546 12.597,362.466 8.362,388.541C8.362,388.541 10.032,389.102 13.141,389.999L125.401,389.999L125.401,390Z" style="fill:rgb(34,59,30);fill-rule:nonzero;"/>
                    <path d="M97.736,365.233C101.59,363.061 105.635,361.229 109.806,359.755C113.485,358.454 117.605,356.563 121.584,357.216C121.743,357.242 121.8,357.421 121.777,357.556C121.151,361.284 120.335,364.976 119.838,368.726C119,375.055 118.87,381.489 119.398,387.851C119.458,388.568 119.529,389.284 119.606,390L125.401,390L123.582,354.444L106.422,327.7C106.422,327.7 105.691,327.764 104.344,327.916C103.531,328.614 102.742,329.338 101.986,330.1C96.699,335.423 92.592,341.985 89.832,348.946C88.447,352.437 87.398,356.074 86.824,359.788C86.427,362.355 85.267,367.565 87.141,369.726C88.71,371.536 96.216,366.09 97.736,365.233Z" style="fill:rgb(34,59,30);fill-opacity:0.5;fill-rule:nonzero;"/>
                    <path d="M30.067,359.509C30.065,359.567 30.083,359.618 30.122,359.654C30.595,360.902 31.041,362.161 31.454,363.429C34.247,372.001 35.845,381.006 36.547,390L37.722,390C37.573,388.056 37.379,386.115 37.139,384.18C36.098,375.776 34.303,367.301 31.26,359.346C33.37,358.556 35.451,357.675 37.549,356.855C39.95,355.916 42.361,355.001 44.78,354.112C49.62,352.333 54.496,350.651 59.404,349.068C64.252,347.503 69.133,346.037 74.04,344.67C79.028,343.281 84.041,341.959 89.112,340.906C94.819,339.722 100.617,338.914 106.451,338.826C106.912,338.819 107.247,338.096 106.623,338.105C96.199,338.268 85.988,340.726 75.982,343.459C66.03,346.177 56.189,349.302 46.496,352.834C43.747,353.836 41.01,354.869 38.285,355.935C35.877,356.876 33.441,357.803 31.084,358.875C30.354,357.001 29.553,355.156 28.675,353.349C28.196,352.363 27.686,351.385 27.158,350.415C26.834,350.588 26.511,350.763 26.188,350.938C26.195,350.952 26.203,350.965 26.211,350.979C27.68,353.735 28.955,356.591 30.067,359.509Z" style="fill:rgb(34,59,30);fill-rule:nonzero;"/>
                </g>
                <path d="M97.233,354.337C103.761,344.353 103.633,341.153 108.241,342.561C112.849,343.969 121.937,353.825 122.193,356.513C122.376,358.433 122.494,375.83 123.246,390L127.094,390L124.947,354.36C124.947,354.36 101.586,301.267 111.598,281.851C111.598,281.851 123.733,285.492 129.801,284.278C129.801,284.278 129.745,280.608 129.105,279.456C128.465,278.304 107.217,270.88 103.377,279.84C99.537,288.8 74.193,346.017 84.433,365.985C84.433,365.985 90.705,364.321 97.233,354.337Z" style="fill:rgb(34,59,30);fill-rule:nonzero;"/>
            </g>
            <g>
                <g>
                    <path d="M321.325,390C324.434,389.103 326.104,388.542 326.104,388.542C321.87,362.467 309.389,351.547 309.389,351.547C273.731,331.712 228.044,327.701 228.044,327.701L210.884,354.445L209.064,390L321.325,390Z" style="fill:rgb(34,59,30);fill-rule:nonzero;"/>
                    <path d="M214.859,390C214.936,389.284 215.007,388.568 215.067,387.851C215.595,381.489 215.465,375.056 214.627,368.726C214.131,364.976 213.314,361.284 212.688,357.556C212.665,357.421 212.722,357.242 212.881,357.216C216.861,356.563 220.98,358.454 224.659,359.755C228.83,361.23 232.875,363.061 236.729,365.233C238.249,366.09 245.754,371.536 247.324,369.726C249.198,367.565 248.038,362.355 247.641,359.788C247.067,356.074 246.018,352.437 244.633,348.946C241.872,341.985 237.766,335.423 232.479,330.1C231.723,329.339 230.933,328.614 230.121,327.916C228.775,327.764 228.043,327.7 228.043,327.7L210.883,354.444L209.064,390L214.859,390Z" style="fill:rgb(34,59,30);fill-opacity:0.5;fill-rule:nonzero;"/>
                    <path d="M228.015,338.827C233.849,338.915 239.647,339.722 245.354,340.907C250.425,341.959 255.438,343.282 260.426,344.671C265.334,346.038 270.214,347.504 275.062,349.069C279.97,350.652 284.846,352.334 289.686,354.113C292.106,355.003 294.516,355.917 296.917,356.856C299.015,357.677 301.096,358.557 303.206,359.347C300.163,367.302 298.368,375.778 297.327,384.181C297.087,386.116 296.893,388.057 296.744,390.001L297.919,390.001C298.621,381.008 300.219,372.002 303.012,363.43C303.425,362.162 303.871,360.903 304.344,359.655C304.383,359.619 304.402,359.568 304.399,359.51C305.51,356.592 306.786,353.736 308.257,350.982C308.264,350.968 308.272,350.955 308.28,350.941C307.957,350.765 307.634,350.591 307.31,350.418C306.783,351.388 306.273,352.366 305.793,353.352C304.915,355.159 304.114,357.003 303.384,358.878C301.027,357.806 298.591,356.88 296.183,355.938C293.458,354.873 290.721,353.839 287.972,352.837C278.279,349.305 268.438,346.18 258.486,343.462C248.48,340.729 238.269,338.27 227.845,338.108C227.219,338.096 227.553,338.82 228.015,338.827Z" style="fill:rgb(34,59,30);fill-rule:nonzero;"/>
                </g>
                <path d="M222.867,281.85C232.879,301.267 209.518,354.359 209.518,354.359L207.371,390L211.219,390C211.971,375.83 212.089,358.433 212.272,356.513C212.528,353.825 221.616,343.969 226.224,342.561C230.832,341.153 230.704,344.353 237.232,354.337C243.76,364.321 250.032,365.985 250.032,365.985C260.272,346.017 234.928,288.8 231.088,279.84C227.248,270.88 206,278.304 205.36,279.456C204.72,280.608 204.664,284.278 204.664,284.278C210.732,285.491 222.867,281.85 222.867,281.85Z" style="fill:rgb(34,59,30);fill-rule:nonzero;"/>
            </g>
        </g>
        <g>
            <g>
                <path d="M86.081,77.816C86.081,77.816 76.577,141.045 93.868,203.195C95.287,208.293 96.9,213.341 98.798,218.283C103.272,229.937 109.279,241.015 118.249,249.848C131.044,262.446 147.861,269.469 163.678,277.379C164.487,277.784 165.314,278.193 166.209,278.318C169.19,278.732 172.053,276.344 174.607,275.183C177.973,273.653 181.319,272.075 184.626,270.42C191.215,267.124 197.668,263.525 203.774,259.394C211.87,253.916 218.874,247.085 224.354,238.976C231.667,228.153 236.315,215.713 239.798,203.195C257.09,141.045 247.586,77.816 247.586,77.816C247.586,77.816 223.667,51.044 167.72,51.044C111.773,51.045 86.081,77.816 86.081,77.816Z" style="fill:rgb(246,182,135);fill-rule:nonzero;"/>
                <path d="M247.585,77.816C247.585,77.816 223.666,51.044 167.719,51.044C111.773,51.044 86.081,77.816 86.081,77.816C86.081,77.816 76.577,141.045 93.868,203.195C94.508,205.494 95.19,207.782 95.917,210.055C91.743,190.988 84.708,151.897 95.231,144.381C109.26,134.36 100.098,111.456 102.675,107.734C105.252,104.012 130.732,90.556 130.732,90.556C130.732,90.556 128.442,110.883 137.603,114.319C137.603,114.319 144.188,90.842 166.806,89.411C189.424,87.98 208.32,78.245 208.32,78.245C208.32,78.245 203.453,98.286 232.942,110.597C232.942,110.597 230.327,137.533 247.954,143.677C248.452,143.851 248.94,144.063 249.421,144.303C251.901,106.544 247.585,77.816 247.585,77.816Z" style="fill:rgb(246,182,135);fill-opacity:0.7;fill-rule:nonzero;"/>
                <g>
                    <g>
                        <path d="M166.916,210.206L166.749,210.206C156.966,210.206 151.483,206.488 148.456,202.869L148.151,203.407C148.151,203.407 150.508,215.442 166.762,215.442L166.905,215.442C183.158,215.442 185.516,203.407 185.516,203.407L185.211,202.869C182.182,206.488 176.699,210.206 166.916,210.206Z" style="fill:rgb(254,208,158);fill-rule:nonzero;"/>
                        <path d="M177.698,189.635L185.885,203.196C185.94,203.288 185.954,203.392 185.932,203.491C185.14,205.449 184.373,207.274 183.221,209.026C179.436,214.046 172.798,215.466 166.833,215.448C160.715,215.585 154.454,214.003 150.558,208.938C149.311,207.314 148.3,205.535 147.736,203.491C147.714,203.389 147.731,203.282 147.783,203.198L155.968,189.636L148.521,203.617L148.568,203.326C148.951,205.192 149.888,207.028 151.055,208.553C155.967,214.883 165.291,216.595 172.772,214.731C176.593,213.785 180.08,211.556 182.5,208.466C183.772,207.048 184.949,205.266 185.097,203.328C185.098,203.322 185.145,203.62 185.145,203.619L177.698,189.635Z" style="fill:rgb(117,76,41);fill-rule:nonzero;"/>
                    </g>
                    <g>
                        <g>
                            <path d="M99.586,138.311C99.586,138.311 124.267,126.155 149.5,140.89C149.5,140.89 152.631,137.391 149.868,123.761C149.868,123.761 122.424,122.656 113.768,126.524C105.111,130.391 99.586,138.311 99.586,138.311Z" style="fill:rgb(117,76,41);fill-rule:nonzero;"/>
                            <g>
                                <path d="M109.628,161.305C109.628,161.305 107.68,166.705 112.372,169.892C117.064,173.079 121.459,176.257 134.263,176.404C134.263,176.404 144.985,173.907 148.173,171.114L148.167,169.406C148.167,169.406 140.394,153.92 127.138,154.764C113.882,155.608 109.628,161.305 109.628,161.305Z" style="fill:white;fill-rule:nonzero;"/>
                                <path d="M147.341,160.619C141.354,152.59 131.252,147.896 121.253,148.855C117.944,149.099 114.659,149.762 111.421,150.689C111.333,150.714 111.241,150.664 111.216,150.576C111.193,150.496 111.234,150.412 111.308,150.379C114.412,149.01 117.746,148.099 121.161,147.762C129.725,146.846 138.552,150.181 144.452,156.437C145.626,157.674 146.722,158.98 147.62,160.442C147.668,160.52 147.643,160.621 147.566,160.669C147.488,160.718 147.389,160.693 147.341,160.619Z" style="fill:rgb(35,31,32);fill-rule:nonzero;"/>
                                <g>
                                    <path d="M134.182,176.65C125.208,177.666 113.922,175.588 109.366,166.89C109.22,166.628 109.614,166.376 109.787,166.629C115.455,174.013 125.282,176.077 134.138,176.157C134.438,176.135 134.493,176.618 134.182,176.65Z" style="fill:rgb(35,31,32);fill-rule:nonzero;"/>
                                </g>
                                <g>
                                    <g transform="matrix(0.3801,-0.925,0.925,0.3801,-71.2825,222.509)">
                                        <circle cx="130.357" cy="164.433" r="11.209" style="fill:rgb(42,112,155);"/>
                                    </g>
                                    <path d="M123.929,164.433C123.929,167.983 126.807,170.86 130.356,170.86C133.906,170.86 136.783,167.982 136.783,164.433C136.783,160.883 133.905,158.006 130.356,158.006C126.807,158.006 123.929,160.883 123.929,164.433Z" style="fill:rgb(36,31,32);fill-rule:nonzero;"/>
                                    <path d="M132.111,162.147C132.111,164.38 133.922,166.191 136.155,166.191C138.388,166.191 140.199,164.381 140.199,162.147C140.199,159.914 138.388,158.103 136.155,158.103C133.921,158.103 132.111,159.913 132.111,162.147Z" style="fill:white;fill-rule:nonzero;"/>
                                </g>
                                <path d="M150.661,172.891C150.559,172.892 149.526,169.846 149.44,169.645C148.354,167.116 147.033,164.68 145.463,162.419C143.507,159.604 141.135,157.037 138.292,155.101C133.511,151.846 127.642,151.343 122.037,151.936C120.065,152.145 118.103,152.491 116.203,153.063C112.449,154.192 108.823,156.285 106.485,159.498C105.875,160.337 105.375,161.248 104.895,162.161C104.799,162.344 104.103,164.123 103.903,164.084C106.079,164.505 108.521,164.417 110.864,163.119C117.438,159.477 123.39,154.324 133.339,157.078C143.288,159.832 148.174,171.114 148.174,171.114L144.887,172.98C144.886,172.98 150.66,172.891 150.661,172.891Z" style="fill:rgb(35,31,32);fill-rule:nonzero;"/>
                            </g>
                        </g>
                        <g>
                            <path d="M234.079,138.311C234.079,138.311 209.398,126.155 184.165,140.89C184.165,140.89 181.034,137.391 183.797,123.761C183.797,123.761 211.241,122.656 219.897,126.524C228.554,130.391 234.079,138.311 234.079,138.311Z" style="fill:rgb(117,76,41);fill-rule:nonzero;"/>
                            <g>
                                <path d="M224.037,161.305C224.037,161.305 225.985,166.705 221.293,169.892C216.601,173.079 212.206,176.257 199.402,176.404C199.402,176.404 188.68,173.907 185.492,171.114L185.498,169.406C185.498,169.406 193.271,153.92 206.528,154.764C219.784,155.608 224.037,161.305 224.037,161.305Z" style="fill:white;fill-rule:nonzero;"/>
                                <path d="M186.325,160.619C192.312,152.59 202.414,147.896 212.413,148.855C215.722,149.099 219.007,149.762 222.245,150.689C222.333,150.714 222.424,150.664 222.45,150.576C222.473,150.496 222.432,150.412 222.358,150.379C219.254,149.01 215.92,148.099 212.505,147.762C203.941,146.846 195.114,150.181 189.214,156.437C188.04,157.674 186.944,158.98 186.046,160.442C185.998,160.52 186.023,160.621 186.1,160.669C186.177,160.718 186.276,160.693 186.325,160.619Z" style="fill:rgb(35,31,32);fill-rule:nonzero;"/>
                                <g>
                                    <path d="M199.483,176.65C208.457,177.666 219.743,175.588 224.299,166.89C224.445,166.628 224.051,166.376 223.878,166.629C218.21,174.013 208.383,176.077 199.527,176.157C199.227,176.135 199.172,176.618 199.483,176.65Z" style="fill:rgb(35,31,32);fill-rule:nonzero;"/>
                                </g>
                                <g>
                                    <g transform="matrix(0.925,-0.3801,0.3801,0.925,-47.2402,89.6137)">
                                        <circle cx="203.309" cy="164.433" r="11.209" style="fill:rgb(42,112,155);"/>
                                    </g>
                                    <path d="M209.736,164.433C209.736,167.983 206.858,170.86 203.309,170.86C199.76,170.86 196.882,167.982 196.882,164.433C196.882,160.883 199.76,158.006 203.309,158.006C206.858,158.006 209.736,160.883 209.736,164.433Z" style="fill:rgb(36,31,32);fill-rule:nonzero;"/>
                                    <path d="M201.554,162.147C201.554,164.38 199.743,166.191 197.51,166.191C195.277,166.191 193.466,164.381 193.466,162.147C193.466,159.914 195.277,158.103 197.51,158.103C199.744,158.103 201.554,159.913 201.554,162.147Z" style="fill:white;fill-rule:nonzero;"/>
                                </g>
                                <path d="M183.005,172.891C183.107,172.892 184.14,169.846 184.226,169.645C185.312,167.116 186.633,164.68 188.203,162.419C190.159,159.604 192.531,157.037 195.374,155.101C200.155,151.846 206.024,151.343 211.629,151.936C213.601,152.145 215.563,152.491 217.463,153.063C221.217,154.192 224.843,156.285 227.181,159.498C227.791,160.337 228.291,161.248 228.771,162.161C228.867,162.344 229.563,164.123 229.763,164.084C227.587,164.505 225.145,164.417 222.802,163.119C216.228,159.477 210.276,154.324 200.327,157.078C190.378,159.832 185.492,171.114 185.492,171.114L188.779,172.98L183.005,172.891Z" style="fill:rgb(35,31,32);fill-rule:nonzero;"/>
                            </g>
                        </g>
                    </g>
                    <g>
                        <path d="M167.788,243.285C168.999,243.285 170.136,243.236 171.35,243.039C172.598,242.836 173.835,242.562 175.053,242.222C177.49,241.54 179.852,240.591 182.086,239.403C186.508,237.051 190.441,232.901 193.457,228.897C189.104,228.998 184.751,229.419 180.397,229.468C176.043,229.517 171.594,230.083 167.711,232.052C159.577,228.669 150.412,229.26 141.626,229.907C144.826,233.688 148.609,237.014 152.942,239.413C157.333,241.844 162.284,243.285 167.319,243.285L167.788,243.285Z" style="fill:rgb(254,208,158);fill-rule:nonzero;"/>
                        <g>
                            <path d="M166.98,236.654L166.686,236.654C166.677,236.654 166.668,236.654 166.658,236.653C147.107,236.55 137.263,227.037 137.166,226.94C136.994,226.77 136.993,226.494 137.162,226.322C137.332,226.15 137.609,226.149 137.78,226.318C137.876,226.412 147.549,235.731 166.832,235.779C186.115,235.731 195.789,226.412 195.884,226.318C196.056,226.149 196.333,226.15 196.502,226.322C196.672,226.494 196.67,226.77 196.499,226.94C196.401,227.036 186.557,236.549 167.006,236.653C166.998,236.654 166.989,236.654 166.98,236.654Z" style="fill:rgb(196,154,108);fill-rule:nonzero;"/>
                        </g>
                        <g>
                            <path d="M166.98,236.654L166.686,236.654C166.677,236.654 166.668,236.654 166.658,236.653C147.107,236.55 137.263,227.037 137.166,226.94C136.994,226.77 136.993,226.494 137.162,226.322C137.332,226.15 137.609,226.149 137.78,226.318C137.876,226.412 147.549,235.731 166.832,235.779C186.115,235.731 195.789,226.412 195.884,226.318C196.056,226.149 196.333,226.15 196.502,226.322C196.672,226.494 196.67,226.77 196.499,226.94C196.401,227.036 186.557,236.549 167.006,236.653C166.998,236.654 166.989,236.654 166.98,236.654Z" style="fill:rgb(196,154,108);fill-rule:nonzero;"/>
                        </g>
                    </g>
                </g>
                <g>
                    <g>
                        <path d="M243.199,175.338C243.446,174.615 254.397,146.177 270.571,150.517C276.803,152.189 278.323,158.452 278.084,164.262C277.735,172.759 274.754,182.02 270.637,189.442C266.842,196.282 261.237,202.264 253.761,204.997C249.612,206.514 240.478,209.24 237.897,203.766C236.968,201.796 237.4,199.383 237.992,197.386C242.931,180.705 243.199,175.338 243.199,175.338Z" style="fill:rgb(246,182,135);fill-rule:nonzero;"/>
                        <path d="M257.507,193.676C257.507,193.676 266.089,193.413 271.333,182.004C276.577,170.595 275.131,156.536 268.311,156.728C261.491,156.92 249.7,175.677 249.7,175.677C249.7,175.677 257.533,179.082 251.649,186.377C251.649,186.377 263.666,184.429 263.501,177.282C263.337,170.135 256.117,169.854 256.117,169.854C256.117,169.854 266.52,157.125 270.712,160.771C274.904,164.418 269.333,191.383 257.507,193.676Z" style="fill:rgb(246,182,135);fill-rule:nonzero;"/>
                    </g>
                    <g>
                        <path d="M90.467,175.338C90.22,174.615 79.269,146.177 63.095,150.517C56.863,152.189 55.343,158.452 55.582,164.262C55.931,172.759 58.912,182.02 63.029,189.442C66.824,196.282 72.429,202.264 79.905,204.997C84.054,206.514 93.188,209.24 95.769,203.766C96.698,201.796 96.266,199.383 95.675,197.386C90.734,180.705 90.467,175.338 90.467,175.338Z" style="fill:rgb(246,182,135);fill-rule:nonzero;"/>
                        <path d="M76.158,193.676C76.158,193.676 67.576,193.413 62.332,182.004C57.088,170.595 58.534,156.536 65.354,156.728C72.174,156.92 83.965,175.677 83.965,175.677C83.965,175.677 76.132,179.082 82.016,186.377C82.016,186.377 69.999,184.429 70.164,177.282C70.328,170.135 77.548,169.854 77.548,169.854C77.548,169.854 67.145,157.125 62.953,160.771C58.762,164.418 64.332,191.383 76.158,193.676Z" style="fill:rgb(246,182,135);fill-rule:nonzero;"/>
                    </g>
                </g>
            </g>
            <g>
                <path d="M95.404,96.828C95.404,96.828 103.276,138.11 84.652,143.678C84.652,143.678 83.692,156.926 88.684,170.751C88.684,170.751 70.827,144.83 70.827,115.069C70.827,115.069 69.291,125.053 71.979,135.998C71.979,135.998 59.883,108.733 75.243,91.26C90.603,73.787 95.404,96.828 95.404,96.828Z" style="fill:rgb(214,79,37);fill-rule:nonzero;"/>
                <path d="M95.404,96.828C95.404,96.828 103.276,138.11 84.652,143.678C84.652,143.678 83.692,156.926 88.684,170.751C88.684,170.751 70.827,144.83 70.827,115.069C70.827,115.069 69.291,125.053 71.979,135.998C71.979,135.998 59.883,108.733 75.243,91.26C90.603,73.787 95.404,96.828 95.404,96.828Z" style="fill:rgb(209,211,212);fill-rule:nonzero;"/>
            </g>
            <g>
                <path d="M237.201,96.828C237.201,96.828 229.329,138.11 247.953,143.678C247.953,143.678 248.913,156.926 243.921,170.751C243.921,170.751 261.778,144.83 261.778,115.069C261.778,115.069 263.314,125.053 260.626,135.998C260.626,135.998 272.722,108.733 257.362,91.26C242.001,73.787 237.201,96.828 237.201,96.828Z" style="fill:rgb(214,79,37);fill-rule:nonzero;"/>
                <path d="M237.201,96.828C237.201,96.828 229.329,138.11 247.953,143.678C247.953,143.678 248.913,156.926 243.921,170.751C243.921,170.751 261.778,144.83 261.778,115.069C261.778,115.069 263.314,125.053 260.626,135.998C260.626,135.998 272.722,108.733 257.362,91.26C242.001,73.787 237.201,96.828 237.201,96.828Z" style="fill:rgb(209,211,212);fill-rule:nonzero;"/>
            </g>
            <g>
                <path d="M211.808,72.478C211.808,72.478 203.181,79.473 170.771,80.172C151.78,80.582 138.032,94.556 135.037,112.797C134.973,113.19 134.907,113.584 134.865,113.98C134.865,113.98 117.378,88.799 145.59,72.71C145.59,72.71 95.227,114.679 70.279,101.156C45.33,87.633 52.325,68.048 52.325,68.048C52.325,68.048 61.885,86.235 81.703,83.903C81.703,83.903 47.428,79.24 53.724,35.405C53.724,35.405 64.45,54.291 81.237,56.389C81.237,56.389 61.651,49.627 58.387,23.746C58.387,23.746 69.579,35.171 87.299,32.839C105.019,30.507 123.439,6.259 175.9,24.212C175.9,24.212 162.143,14.652 138.594,15.352C138.594,15.352 161.211,4.86 191.289,13.253C221.367,21.647 222.999,45.663 222.766,51.258C222.766,51.258 229.994,26.077 205.979,13.719C206.805,14.144 209.466,13.528 210.414,13.549C213.852,13.624 217.313,14.119 220.585,15.195C229.17,18.019 235.629,25.621 234.418,34.939C233.449,42.394 229.961,49.851 225.565,55.922C226.496,54.636 230.883,54.105 232.258,53.819C237.356,52.761 242.804,52.677 247.882,53.881C258.836,56.477 267.367,63.844 273.596,72.943C294.347,103.254 264.503,127.27 259.839,126.803C259.839,126.803 264.036,120.508 256.109,116.544C248.181,112.582 200.849,93.696 211.808,72.478Z" style="fill:rgb(214,79,37);fill-rule:nonzero;"/>
                <g>
                    <path d="M155.577,80.003C132.793,88.433 134.865,113.981 134.865,113.981C134.907,113.585 134.973,113.191 135.037,112.798C138.033,94.557 151.78,80.583 170.771,80.173C203.181,79.473 211.808,72.479 211.808,72.479C211.388,73.293 211.063,74.103 210.809,74.909C214.621,66.779 215.956,59.27 215.956,59.27C211.171,72.712 178.361,71.573 155.577,80.003Z" style="fill:rgb(214,79,37);fill-rule:nonzero;"/>
                    <path d="M70.279,101.157C88.142,110.84 119.029,92.076 135.136,80.636C136.542,78.022 137.35,75.674 137.35,75.674C137.35,75.674 99.983,98.686 81.755,99.142C63.527,99.598 53.047,82.737 53.047,82.737L52.817,82.675C54.884,88.625 59.721,95.434 70.279,101.157Z" style="fill:rgb(214,79,37);fill-rule:nonzero;"/>
                </g>
            </g>
        </g>
    </g>
</svg>
