<?xml version="1.0" encoding="UTF-8" standalone="no"?>
<!DOCTYPE svg PUBLIC "-//W3C//DTD SVG 1.1//EN" "http://www.w3.org/Graphics/SVG/1.1/DTD/svg11.dtd">
<svg width="100%" height="100%" viewBox="0 0 45 43" version="1.1" xmlns="http://www.w3.org/2000/svg" xmlns:xlink="http://www.w3.org/1999/xlink" xml:space="preserve" xmlns:serif="http://www.serif.com/" style="fill-rule:evenodd;clip-rule:evenodd;stroke-linejoin:round;stroke-miterlimit:2;">
    <g id="CERCHIO">
        <g transform="matrix(0.955556,0,0,0.955556,1,0.204391)">
            <ellipse cx="21.139" cy="20.081" rx="1.363" ry="1.419" style="fill-opacity:0;"/>
        </g>
        <circle cx="22.5" cy="21.5" r="21.5" style="fill:rgb(66,15,0);fill-opacity:0;"/>
    </g>
    <g transform="matrix(0.10113,0,0,0.10113,1,-0.000131133)">
        <circle cx="263.62" cy="161.57" r="25.51" style="fill:white;"/>
    </g>
    <g transform="matrix(0.10113,0,0,0.10113,1,-0.000131133)">
        <circle cx="291.97" cy="212.6" r="17.01" style="fill:white;"/>
    </g>
    <g transform="matrix(0.0715095,-0.0715095,0.0715095,0.0715095,-7.90548,21.5)">
        <circle cx="212.6" cy="212.6" r="70.87" style="fill:rgb(29,29,27);"/>
    </g>
    <g transform="matrix(0.10113,0,0,0.10113,1,-0.000131133)">
        <path d="M141.73,212.6C141.73,172.89 174.39,140.81 214.3,141.75C251.63,142.63 282.19,172.89 283.42,210.21C284.02,228.58 277.63,245.45 266.71,258.35C264.55,260.9 264.66,264.66 267.03,267.02C269.65,269.64 273.97,269.51 276.37,266.68C289.07,251.72 296.6,232.24 296.2,211C295.39,167.41 260.64,131.37 217.1,129.09C168.87,126.56 128.98,164.92 128.98,212.59C128.98,218.65 129.63,224.55 130.86,230.24C131.64,233.86 135.39,236.01 138.94,234.94C142.14,233.97 144.01,230.7 143.31,227.43C142.29,222.64 141.74,217.68 141.74,212.59L141.73,212.6Z" style="fill:rgb(183,29,68);fill-rule:nonzero;"/>
    </g>
    <g transform="matrix(0.10113,0,0,0.10113,1,-0.000131133)">
        <path d="M128.98,212.6C128.98,165.72 167.55,127.85 214.69,129C259.19,130.08 295.35,166.44 296.21,210.94C296.43,222.05 294.47,232.68 290.74,242.43C288.57,248.09 290.97,254.48 296.32,257.34C302.74,260.77 310.69,257.77 313.29,250.97C318.07,238.43 320.58,224.77 320.31,210.48C319.18,151.67 270.3,104.28 211.49,104.89C152.52,105.49 104.9,153.49 104.9,212.6C104.9,229.87 108.96,246.18 116.19,260.64C119.44,267.15 127.65,269.37 133.7,265.33C138.74,261.96 140.51,255.38 137.79,249.96C132.16,238.72 128.99,226.03 128.99,212.6L128.98,212.6Z" style="fill:rgb(239,125,0);fill-rule:nonzero;"/>
    </g>
    <g transform="matrix(0.10113,0,0,0.10113,1,-0.000131133)">
        <path d="M319.16,196.82C320.06,202.91 320.44,209.16 320.27,215.53C318.72,273.34 271.05,319.98 213.22,320.31C153.44,320.65 104.88,272.29 104.88,212.6C104.88,203.58 105.99,194.83 108.08,186.46C108.81,183.55 107.08,180.59 104.21,179.72C101.08,178.77 97.83,180.66 97.05,183.83C94.54,193.94 93.32,204.56 93.58,215.5C95.13,280.37 149.21,332.44 214.09,331.64C279.15,330.84 331.65,277.85 331.65,212.59C331.65,206.71 331.22,200.94 330.4,195.29C329.93,192.06 326.88,189.86 323.67,190.49C320.73,191.07 318.72,193.85 319.16,196.81L319.16,196.82Z" style="fill:rgb(251,186,0);fill-rule:nonzero;"/>
    </g>
    <g transform="matrix(0.10113,0,0,0.10113,1,-0.000131133)">
        <path d="M93.54,212.6C93.54,147.2 146.27,94.12 211.53,93.55C277,92.98 331.08,146.08 331.64,211.55C331.8,230.28 327.63,248.03 320.07,263.84C318.75,266.6 319.79,269.9 322.49,271.34C325.32,272.85 328.87,271.73 330.26,268.84C338.2,252.26 342.74,233.74 342.98,214.18C343.84,142.2 285.46,82.68 213.48,82.2C141.06,81.72 82.2,140.28 82.2,212.59C82.2,232.73 86.77,251.8 94.93,268.83C96.32,271.72 99.87,272.85 102.7,271.33C105.39,269.89 106.43,266.59 105.12,263.84C97.7,248.32 93.55,230.94 93.55,212.59L93.54,212.6Z" style="fill:rgb(149,193,31);fill-rule:nonzero;"/>
    </g>
    <g transform="matrix(0.10113,0,0,0.10113,1,-0.000131133)">
        <path d="M82.2,212.6C82.2,140.27 141.09,81.7 213.53,82.21C285.55,82.72 343.91,142.32 342.97,214.34C342.53,247.69 329.58,278.02 308.59,300.85C306.52,303.1 306.56,306.57 308.72,308.73C310.99,311 314.7,310.96 316.87,308.6C340.12,283.35 354.33,249.64 354.33,212.61C354.33,134.38 291.74,71.37 213.51,70.88C134.81,70.38 70.87,134.03 70.87,212.61C70.87,224.84 72.42,236.7 75.34,248.02C76.15,251.16 79.38,253.02 82.49,252.08C85.38,251.2 87.11,248.21 86.35,245.29C83.65,234.85 82.21,223.9 82.21,212.61L82.2,212.6Z" style="fill:rgb(0,131,60);fill-rule:nonzero;"/>
    </g>
    <g transform="matrix(0.10113,0,0,0.10113,1,-0.000131133)">
        <path d="M212.6,70.87C239.77,70.87 265.15,78.52 286.72,91.78C289.33,93.39 292.74,92.68 294.44,90.13C296.22,87.47 295.46,83.85 292.74,82.17C269.43,67.82 241.99,59.54 212.61,59.54C130.03,59.54 62.72,124.94 59.65,206.77C59.53,209.97 62.12,212.61 65.32,212.61C68.38,212.61 70.86,210.18 70.98,207.13C73.86,131.39 136.17,70.88 212.61,70.88L212.6,70.87Z" style="fill:rgb(0,102,64);fill-rule:nonzero;"/>
    </g>
    <g transform="matrix(0.10113,0,0,0.10113,1,-0.000131133)">
        <path d="M39.69,212.6C39.69,238.41 45.35,262.89 55.49,284.88C57.84,289.99 64.06,292 69.02,289.35L69.2,289.25C73.81,286.79 75.63,281.16 73.45,276.42C64.34,256.6 59.34,234.5 59.55,211.21C60.13,146.28 101.65,90.71 159.39,69.13C164.31,67.29 166.9,61.91 165.38,56.88C163.7,51.33 157.69,48.42 152.25,50.43C86.37,74.8 39.7,138.02 39.7,212.59L39.69,212.6Z" style="fill:rgb(52,187,218);fill-rule:nonzero;"/>
    </g>
    <g transform="matrix(0.10113,0,0,0.10113,1,-0.000131133)">
        <path d="M356.1,135.89C351.5,138.35 349.54,143.97 351.72,148.7C360.67,168.15 365.66,189.78 365.66,212.59C365.66,278.28 324.28,334.29 266.17,356.01C261.34,357.82 258.41,362.93 259.71,367.92C261.21,373.68 267.34,376.75 272.86,374.7C338.64,350.23 385.5,286.89 385.5,212.59C385.5,186.89 379.89,162.5 369.83,140.57C367.43,135.34 361.17,133.17 356.1,135.88L356.1,135.89Z" style="fill:rgb(52,187,218);fill-rule:nonzero;"/>
    </g>
    <g transform="matrix(0.10113,0,0,0.10113,1,-0.000131133)">
        <path d="M396.85,212.6C396.85,110.85 314.37,28.36 212.61,28.35C112.68,28.35 30.42,108.86 28.38,208.77C28.01,226.69 30.22,244.04 34.63,260.48C35.46,263.57 38.7,265.35 41.76,264.42C44.69,263.53 46.37,260.48 45.58,257.52C41.59,242.65 39.52,227 39.69,210.83C40.65,115.63 117.5,39.63 212.71,39.69C307.92,39.75 385.51,117.14 385.51,212.6C385.51,264.47 362.67,311 326.5,342.7C324.19,344.72 323.88,348.2 325.83,350.57C327.85,353.04 331.53,353.36 333.93,351.26C372.49,317.49 396.85,267.89 396.85,212.6Z" style="fill:rgb(131,31,130);fill-rule:nonzero;"/>
    </g>
    <g transform="matrix(0.10113,0,0,0.10113,1,-0.000131133)">
        <path d="M28.35,212.6C28.35,110.84 110.84,28.35 212.6,28.35C313.87,28.35 395.76,109.32 396.84,210.59C397.34,257.5 380.31,300.43 351.89,333.22C347.01,338.85 347.28,347.28 352.55,352.55C358.33,358.33 367.84,358.09 373.2,351.91C406.13,313.98 425.85,264.26 425.18,209.94C423.73,91.77 327.25,-1.88 209.1,0.03C93.3,1.9 0,96.35 0,212.6C0,214.44 0.02,216.28 0.07,218.11C0.28,226.32 7.4,232.64 15.58,231.87C23.02,231.17 28.6,224.81 28.41,217.34C28.37,215.76 28.35,214.18 28.35,212.59L28.35,212.6Z" style="fill:rgb(229,25,63);fill-rule:nonzero;"/>
    </g>
    <g transform="matrix(0.10113,0,0,0.10113,1,-0.000131133)">
        <circle cx="263.62" cy="161.57" r="25.51" style="fill:white;"/>
    </g>
    <g transform="matrix(0.10113,0,0,0.10113,1,-0.000131133)">
        <circle cx="291.97" cy="212.6" r="17.01" style="fill:white;"/>
    </g>
</svg>
